<!-- Generated by IcoMoon.io -->
<svg version="1.1" xmlns="http://www.w3.org/2000/svg" width="1254" height="1024" viewBox="0 0 1254 1024">
<title></title>
<g id="icomoon-ignore">
</g>
<path fill="#2596be" d="M1049.108 72.567v0 0c-7.042-9.186-20.209-10.921-29.394-3.878l-25.72 19.494c-11.227-9.39-23.679-17.351-37.253-23.577l4.797-34.906c1.633-11.431-6.43-22.046-17.861-23.577l-43.377-5.92c-11.431-1.531-22.046 6.532-23.577 17.963l-4.389 31.946c-14.799 1.327-29.292 4.593-42.867 9.696l-21.331-28.067c-6.94-9.186-20.106-10.921-29.292-3.98l-34.804 26.434c-9.186 6.94-10.921 20.106-3.98 29.19l19.494 25.72c-9.288 11.125-17.249 23.679-23.475 37.151l-34.906-4.797c-11.431-1.531-21.944 6.43-23.577 17.861l-5.92 43.377c-1.633 11.431 6.43 22.046 17.861 23.577l31.946 4.389c1.327 14.799 4.593 29.19 9.696 42.867l-28.067 21.331c-9.186 6.94-10.921 20.106-3.98 29.292l26.434 34.804c6.94 9.186 20.106 10.921 29.292 3.98l25.72-19.494c11.125 9.288 23.679 17.249 37.151 23.475l-4.797 34.906c-1.531 11.431 6.43 22.046 17.861 23.577l43.377 5.92c11.431 1.531 22.046-6.43 23.577-17.861l4.389-31.946c14.901-1.327 29.292-4.593 42.969-9.696l21.331 28.067c6.94 9.084 20.106 10.921 29.292 3.98l34.804-26.434c9.186-6.94 11.023-20.106 4.083-29.292l-19.596-25.72c9.39-11.125 17.351-23.577 23.577-37.151l34.906 4.797c11.431 1.633 22.046-6.43 23.577-17.861l5.92-43.377c1.531-11.431-6.43-22.046-17.861-23.577l-31.946-4.389c-1.327-14.799-4.593-29.292-9.696-42.867l28.067-21.331c9.186-6.94 10.921-20.106 3.98-29.292l-26.434-34.804zM302.821 685.048v-168.404h86.754c16.126 0 28.374 1.327 36.845 4.185 8.471 2.756 15.412 7.859 20.515 15.309 5.205 7.553 7.859 16.636 7.859 27.353 0 9.288-2.041 17.453-6.022 24.189-3.98 6.838-9.492 12.35-16.432 16.534-4.389 2.654-10.513 4.899-18.269 6.634 6.226 2.143 10.717 4.083 13.472 6.226 1.939 1.429 4.695 4.389 8.267 8.879s6.022 8.063 7.246 10.513l25.312 48.684h-58.788l-27.761-51.338c-3.572-6.634-6.634-11.023-9.39-12.962-3.776-2.552-8.063-3.878-12.758-3.878h-4.593v68.178h-52.256v-0.102zM486.331 978.276h-97.164l-13.983 45.724h-87.57l104.411-277.51h93.898l104.002 277.51h-89.816l-13.779-45.724zM468.164 918.16l-30.313-99.818-30.415 99.818h60.728zM610.134 746.49h142.684c31.129 0 54.4 7.349 69.811 22.148s23.168 35.926 23.168 63.177c0 28.067-8.471 50.011-25.312 65.831s-42.662 23.679-77.262 23.679h-47.051v102.676h-86.039v-277.51zM696.173 865.088h21.127c16.636 0 28.374-2.858 35.11-8.675 6.736-5.716 10.104-13.166 10.104-22.046 0-8.675-2.96-16.126-8.777-22.148s-16.84-9.084-32.966-9.084h-24.597v61.952zM880.499 746.49h86.039v277.51h-86.039v-277.51zM355.078 585.026h21.944c2.347 0 6.94-0.817 13.779-2.347 3.47-0.714 6.328-2.45 8.471-5.307 2.245-2.858 3.266-6.124 3.266-9.798 0-5.409-1.735-9.696-5.205-12.554-3.47-2.96-9.9-4.389-19.392-4.389h-22.862v34.395zM478.37 516.644h139.316v35.926h-87.060v26.843h80.732v34.293h-80.732v33.171h89.611v38.070h-141.868v-168.302zM632.588 629.322l49.399-3.062c1.021 8.063 3.266 14.085 6.532 18.269 5.409 6.736 13.064 10.206 22.964 10.206 7.349 0 13.166-1.735 17.147-5.205s6.022-7.553 6.022-12.146c0-4.389-1.939-8.267-5.716-11.737s-12.656-6.634-26.638-9.798c-22.76-5.103-38.988-11.941-48.786-20.413s-14.697-19.29-14.697-32.456c0-8.675 2.552-16.84 7.553-24.495s12.554-13.779 22.658-18.167c10.104-4.389 23.883-6.532 41.438-6.532 21.535 0 37.865 3.98 49.194 12.043 11.227 8.063 17.963 20.719 20.106 38.274l-48.888 2.96c-1.327-7.655-4.083-13.268-8.165-16.636-4.185-3.47-10.002-5.205-17.249-5.205-6.022 0-10.615 1.327-13.676 3.878s-4.593 5.716-4.593 9.39c0 2.654 1.327 5.001 3.776 7.246 2.45 2.143 8.165 4.287 17.351 6.226 22.76 4.899 39.090 9.9 48.888 14.901s17.045 11.227 21.433 18.678c4.491 7.349 6.736 15.718 6.736 24.903 0 10.819-2.96 20.719-8.982 29.802-5.92 9.084-14.289 16.024-25.005 20.719s-24.189 7.042-40.519 7.042c-28.578 0-48.48-5.511-59.503-16.534-11.023-11.227-17.249-25.21-18.78-42.152v0zM792.929 516.644h158.3v41.642h-53.073v126.762h-52.052v-126.762h-53.175v-41.642zM617.788 116.964c-18.678-1.429-37.559-1.225-56.237 0.612-57.462 5.511-113.29 26.434-159.423 62.259-53.379 41.336-93.898 103.186-109.514 185.143l-4.899 25.618-25.516 4.491c-25.005 4.389-47.357 10.41-66.953 18.065-18.984 7.349-35.926 16.432-50.725 27.149-11.839 8.573-22.046 18.167-30.721 28.578-26.843 32.15-39.294 72.465-38.988 113.29 0.306 41.438 13.779 83.284 38.682 117.679 9.288 12.758 20.004 24.495 32.252 34.701 12.452 10.308 26.434 18.882 42.152 25.312 8.879 3.674 18.371 6.736 28.272 9.186v76.445c-20.413-3.674-39.192-9.186-56.747-16.432-23.168-9.594-43.683-21.944-61.748-37.049-17.147-14.289-32.15-30.517-44.908-48.174-33.987-46.949-52.358-104.309-52.767-161.464-0.408-57.768 17.555-115.229 56.339-161.77 12.554-15.105 27.353-28.986 44.295-41.234 19.698-14.289 42.254-26.332 67.77-36.232 17.555-6.838 36.334-12.554 56.135-17.147 22.454-89.203 70.322-157.892 131.866-205.555 57.564-44.602 126.865-70.628 198.207-77.466 37.457-3.572 75.425-1.939 112.576 5.001-0.817 3.368-1.531 6.736-1.939 10.206l-0.102 0.612c-0.714 5.818-1.021 11.635-0.714 17.555-7.859 3.062-15.207 7.246-21.842 12.35l-0.306 0.204c-9.9 7.451-18.269 17.045-24.495 28.067v0zM1157.805 312.926c5.716 5.205 11.227 10.615 16.636 16.432 10.921 11.737 21.229 25.005 30.925 39.805 32.66 50.215 49.399 117.271 48.684 182.897-0.714 64.402-18.065 128.498-53.583 175.651-23.168 30.721-52.869 55.829-88.489 75.731-24.393 13.676-51.848 25.005-81.753 34.191v-79.099c16.126-6.022 31.129-12.758 44.908-20.413 26.843-15.003 48.786-33.273 65.218-55.216 25.516-33.987 38.070-82.059 38.58-131.355 0.612-51.746-12.043-103.696-36.641-141.46-7.042-10.921-14.799-20.719-22.964-29.496-3.164-3.368-6.328-6.532-9.594-9.594 0.51-5.103 0.714-10.308 0.408-15.514 7.859-3.062 15.207-7.246 21.842-12.35l0.306-0.204c10.513-8.063 19.29-18.269 25.516-30.007v0zM898.973 130.641c47.051 6.43 79.915 49.807 73.485 96.858s-49.807 80.018-96.858 73.588c-47.051-6.43-80.018-49.807-73.485-96.858s49.807-80.018 96.858-73.588v0 0z"></path>
</svg>
